<?xml version="1.0" standalone="no"?>
<!DOCTYPE svg PUBLIC "-//W3C//DTD SVG 20010904//EN"
 "http://www.w3.org/TR/2001/REC-SVG-20010904/DTD/svg10.dtd">
<svg version="1.0" xmlns="http://www.w3.org/2000/svg"
 width="470.000000pt" height="230.000000pt" viewBox="0 0 470.000000 230.000000"
 preserveAspectRatio="xMidYMid meet">

<g transform="translate(0.000000,230.000000) scale(0.100000,-0.100000)"
fill="#000000" stroke="none">
<path d="M0 1150 l0 -1150 2350 0 2350 0 0 1150 0 1150 -2350 0 -2350 0 0
-1150z m2350 743 c72 -42 99 -152 107 -439 9 -323 -17 -477 -93 -543 -30 -27
-42 -31 -95 -31 l-60 0 6 -162 c7 -211 12 -248 32 -270 9 -10 14 -21 10 -24
-3 -3 -38 -3 -77 1 -60 6 -69 9 -59 21 15 19 16 67 1 304 -15 249 -15 581 0
830 15 238 14 285 -1 304 -11 13 -5 15 41 19 127 8 160 7 188 -10z m241 7 c27
0 28 -2 17 -25 -8 -18 -8 -83 1 -252 14 -282 14 -661 0 -893 -14 -227 -14
-267 0 -284 9 -11 2 -14 -35 -20 -26 -3 -60 -6 -76 -6 -28 0 -28 0 -12 26 25
37 33 212 33 719 0 515 -8 681 -34 721 l-17 27 47 -6 c26 -4 61 -7 76 -7z
m-553 -14 c41 -1 43 -2 37 -26 -7 -26 -64 -362 -66 -383 0 -7 -7 14 -15 46
-25 103 -76 148 -129 113 -39 -26 -58 -73 -58 -146 0 -81 9 -99 87 -175 108
-104 139 -199 157 -471 22 -354 -30 -466 -182 -389 -28 14 -58 23 -68 20 -15
-4 -20 8 -34 82 -21 111 -49 331 -45 345 2 6 14 -16 26 -49 26 -71 84 -150
119 -164 57 -22 83 15 83 119 -1 89 -21 132 -108 220 -115 117 -150 215 -138
394 14 227 76 395 166 456 30 20 42 23 80 16 25 -4 64 -8 88 -8z m773 -2 c25
-3 60 -14 77 -24 90 -55 154 -269 156 -525 1 -129 1 -132 -32 -196 l-33 -64
18 -45 c26 -69 23 -275 -7 -399 -14 -59 -20 -107 -16 -131 l6 -37 -57 -7 c-30
-4 -58 -5 -60 -2 -3 2 2 17 10 33 17 31 57 266 57 330 0 81 -37 143 -85 143
-26 0 -28 -12 -40 -180 -4 -47 -13 -129 -21 -182 -10 -69 -11 -105 -4 -124 6
-15 9 -28 7 -30 -1 -2 -33 -6 -70 -10 l-68 -7 20 40 c48 91 70 779 37 1169
-15 178 -24 226 -45 239 -6 3 -11 11 -11 17 0 10 20 9 161 -8z m-1084 -66
c-42 -74 -81 -276 -97 -504 -21 -287 34 -719 103 -818 l20 -28 -54 7 c-68 9
-69 10 -69 48 0 46 -58 229 -127 402 -33 83 -69 175 -79 205 l-19 55 -3 -53
c-9 -153 79 -537 138 -600 25 -26 25 -35 3 -28 -10 3 -37 10 -60 16 -39 10
-43 14 -43 41 0 16 -11 56 -24 88 -14 31 -36 102 -50 157 -70 280 -57 574 39
842 19 53 35 109 35 124 0 22 6 29 28 34 15 3 42 10 60 14 39 10 39 7 7 -31
-35 -42 -75 -177 -75 -253 0 -97 52 -332 71 -320 5 3 9 32 9 64 0 84 27 256
61 388 16 62 29 126 29 142 0 23 5 31 23 34 104 23 102 24 74 -26z m1466 7
c32 -6 37 -11 37 -34 0 -14 10 -46 21 -71 163 -352 200 -755 99 -1068 -11 -35
-20 -75 -20 -88 0 -26 -17 -36 -84 -48 l-39 -7 22 27 c19 24 49 109 65 185 l5
25 -55 -11 -56 -11 -34 -88 c-19 -48 -34 -101 -34 -116 0 -31 -5 -34 -79 -45
l-43 -7 26 38 c55 81 134 379 161 610 19 162 19 307 1 456 -17 136 -30 190
-57 237 l-20 33 23 -5 c13 -3 40 -9 61 -12z m-1872 -76 c8 -15 8 -38 0 -82
-63 -367 -68 -554 -22 -866 30 -201 30 -241 0 -241 -6 0 -38 14 -71 32 -165
88 -318 363 -318 573 0 219 161 501 333 580 63 30 64 30 78 4z m2225 -25 c60
-40 90 -71 170 -176 102 -136 100 -128 59 -174 l-34 -39 -1 30 c-1 86 -125
231 -144 168 -9 -32 -4 -708 6 -725 26 -52 99 19 130 126 l14 48 19 -55 c21
-64 29 -47 -86 -188 -78 -95 -107 -122 -168 -153 -30 -16 -35 -16 -49 -2 -14
13 -13 29 7 158 38 255 42 291 42 428 0 129 -12 241 -46 451 -8 53 -12 104 -9
113 9 24 46 20 90 -10z m131 -52 c36 -20 164 -155 214 -228 18 -27 48 -76 66
-109 36 -66 44 -51 16 31 -19 58 -67 136 -120 195 l-38 43 48 -34 c97 -69 169
-194 182 -316 12 -107 -37 -265 -116 -381 -63 -92 -171 -193 -206 -193 -4 0
18 26 49 58 65 67 115 142 153 233 25 58 27 72 21 141 -15 180 -110 369 -261
521 -60 59 -62 68 -8 39z m-2681 -116 c-20 -39 -39 -86 -42 -104 -5 -22 -21
-44 -53 -70 -66 -55 -71 -56 -49 -12 28 55 36 120 15 120 -29 0 -102 -65 -135
-120 -72 -120 -81 -243 -25 -362 37 -78 69 -116 122 -146 36 -21 42 -21 47 -7
4 9 -3 42 -15 73 l-22 57 60 -60 c34 -33 61 -66 61 -75 0 -9 16 -48 35 -89 19
-40 35 -77 35 -82 0 -14 -65 16 -140 66 -99 65 -200 177 -246 271 -34 68 -39
87 -39 149 0 62 5 81 37 146 62 124 179 239 322 315 77 42 82 30 32 -70z"/>
<path d="M2216 1579 c-3 -34 -6 -142 -6 -240 l0 -179 34 0 c44 0 83 32 96 78
5 20 10 96 10 168 0 182 -20 234 -90 234 l-37 0 -7 -61z"/>
<path d="M2803 1572 c4 -32 9 -120 13 -195 l7 -137 34 0 c77 0 99 44 88 178
-12 155 -42 212 -111 212 l-37 0 6 -58z"/>
<path d="M3287 1297 c-4 -10 -7 -46 -7 -79 0 -33 -7 -106 -16 -160 -17 -110
-13 -123 31 -112 l28 7 -6 146 c-7 159 -18 229 -30 198z"/>
<path d="M1117 1530 c-75 -65 -133 -255 -123 -400 8 -130 52 -253 112 -320 39
-42 70 -51 77 -22 7 22 7 732 0 755 -7 25 -28 21 -66 -13z"/>
</g>
</svg>
